<svg width="135" height="21" viewBox="0 0 135 21" fill="none" xmlns="http://www.w3.org/2000/svg">
<path d="M16.8224 8.48944H4.61511V4.46924H19.9951V0.449043H4.57437C4.04748 0.44611 3.52517 0.547005 3.03727 0.745964C2.54938 0.944924 2.10547 1.23805 1.73088 1.6086C1.35629 1.97915 1.05838 2.41987 0.854144 2.90558C0.649911 3.39129 0.543363 3.91247 0.540588 4.43936V8.51389C0.542651 9.04124 0.648675 9.56301 0.85259 10.0493C1.0565 10.5357 1.35431 10.977 1.72897 11.3482C2.10362 11.7193 2.54778 12.0129 3.03603 12.2122C3.52427 12.4115 4.04702 12.5126 4.57437 12.5096H16.7979V16.5298H0.83124V20.55H16.8224C17.6159 20.5545 18.3929 20.3234 19.0551 19.8861C19.7173 19.4488 20.2349 18.8249 20.5424 18.0934C20.7467 17.6077 20.8534 17.0866 20.8562 16.5597V12.4852C20.8541 11.9579 20.748 11.4361 20.5441 10.9498C20.3402 10.4635 20.0423 10.0221 19.6677 9.651C19.293 9.27989 18.8489 8.98627 18.3607 8.78696C17.8725 8.58765 17.3497 8.48655 16.8224 8.48944ZM40.4709 0.449043H28.2175C27.4226 0.44271 26.6437 0.67259 25.9797 1.10953C25.3157 1.54646 24.7964 2.17077 24.4876 2.90327C24.2826 3.38957 24.1756 3.9116 24.1728 4.43936V16.5597C24.1755 17.0875 24.2826 17.6096 24.4876 18.0961C24.7963 18.8286 25.3156 19.4529 25.9797 19.8898C26.6437 20.3267 27.4226 20.5565 28.2175 20.55H40.4709C40.9978 20.553 41.5201 20.4521 42.008 20.2531C42.4959 20.0542 42.9398 19.761 43.3144 19.3905C43.689 19.0199 43.9869 18.5792 44.1911 18.0935C44.3954 17.6078 44.5019 17.0866 44.5047 16.5597V4.43936C44.5019 3.91249 44.3954 3.39132 44.1911 2.90565C43.9868 2.41998 43.6888 1.97934 43.3141 1.60892C42.9397 1.23825 42.4958 0.945023 42.0079 0.746002C41.5201 0.546981 40.9978 0.446071 40.4709 0.449043ZM40.441 16.5298H28.2473V4.46924H40.4356L40.441 16.5298ZM83.3892 0.449043H71.4373C70.9104 0.44611 70.3881 0.547005 69.9002 0.745964C69.4123 0.944924 68.9684 1.23805 68.5938 1.6086C68.2192 1.97915 67.9213 2.41987 67.7171 2.90558C67.5128 3.39129 67.4063 3.91247 67.4035 4.43936V20.55H71.478V13.9466H83.3756V20.55H87.4501V4.43936C87.4475 3.91014 87.3401 3.38669 87.1342 2.89916C86.9283 2.41163 86.6279 1.96967 86.2504 1.59875C85.8729 1.22782 85.4258 0.935272 84.9347 0.737951C84.4437 0.54063 83.9184 0.442441 83.3892 0.449043ZM83.3593 9.92639H71.4617V4.46924H83.3593V9.92639ZM130.966 0.449043H119.014C118.487 0.44611 117.965 0.547005 117.477 0.745964C116.989 0.944924 116.545 1.23805 116.171 1.6086C115.796 1.97915 115.498 2.41987 115.294 2.90558C115.09 3.39129 114.983 3.91247 114.98 4.43936V20.55H119.055V13.9466H130.925V20.55H135V4.43936C134.997 3.91249 134.891 3.39132 134.686 2.90565C134.482 2.41998 134.184 1.97934 133.809 1.60892C133.053 0.860588 132.03 0.44337 130.966 0.449043ZM130.925 9.92639H119.028V4.46924H130.925V9.92639ZM107.293 16.5298H105.663L99.8367 2.13318C99.637 1.63644 99.2935 1.2107 98.8502 0.91061C98.4068 0.610524 97.8839 0.449791 97.3485 0.449043H93.7331C93.2038 0.44619 92.6856 0.600439 92.2441 0.892259C91.8026 1.18408 91.4576 1.60035 91.2528 2.08836C91.1167 2.41226 91.0458 2.75976 91.0439 3.11107V20.55H95.1184V4.46924H96.7482L102.572 18.8659C102.775 19.3617 103.121 19.7858 103.566 20.0839C104.011 20.3819 104.535 20.5405 105.071 20.5392H108.687C109.038 20.5411 109.386 20.4737 109.712 20.3408C110.037 20.208 110.333 20.0123 110.583 19.765C111.087 19.2658 111.372 18.5867 111.376 17.8772V0.449043H107.293V16.5298ZM52.1784 0.449043H48.1038V16.5597C48.1066 17.0877 48.2136 17.61 48.4187 18.0966C48.6238 18.5831 48.923 19.0244 49.299 19.3951C49.6751 19.7657 50.1206 20.0586 50.61 20.2568C51.0995 20.455 51.6232 20.5546 52.1512 20.55H64.3748V16.5298H52.1784V0.449043Z" fill="white"/>
</svg>
