<svg width="30" height="27" viewBox="0 0 30 27" fill="none" xmlns="http://www.w3.org/2000/svg">
<path d="M29.0049 21.0216L24.1915 26.1827C24.0874 26.2948 23.9613 26.3843 23.8211 26.4455C23.6809 26.5067 23.5296 26.5384 23.3766 26.5385H0.559254C0.450427 26.5385 0.343979 26.5067 0.252945 26.4471C0.161911 26.3874 0.0902414 26.3025 0.0467121 26.2028C0.00318287 26.1031 -0.0103169 25.9928 0.0078659 25.8855C0.0260487 25.7782 0.0751248 25.6785 0.149085 25.5987L4.95703 20.4376C5.06116 20.3255 5.18725 20.2361 5.32745 20.1749C5.46765 20.1137 5.61895 20.082 5.77194 20.0818H28.5893C28.6991 20.0795 28.8072 20.1098 28.8998 20.1688C28.9925 20.2278 29.0657 20.3128 29.1101 20.4133C29.1545 20.5138 29.1682 20.6251 29.1495 20.7334C29.1308 20.8416 29.0805 20.9419 29.0049 21.0216ZM24.1915 10.6261C24.087 10.5145 23.9609 10.4254 23.8207 10.3643C23.6806 10.3031 23.5295 10.2711 23.3766 10.2703H0.559254C0.450427 10.2704 0.343979 10.3022 0.252945 10.3618C0.161911 10.4214 0.0902414 10.5063 0.0467121 10.606C0.00318287 10.7058 -0.0103169 10.8161 0.0078659 10.9234C0.0260487 11.0307 0.0751248 11.1303 0.149085 11.2102L4.95703 16.3739C5.06154 16.4855 5.18771 16.5746 5.32782 16.6358C5.46793 16.697 5.61905 16.729 5.77194 16.7298H28.5893C28.6979 16.7292 28.804 16.697 28.8946 16.6372C28.9852 16.5774 29.0565 16.4924 29.0997 16.3928C29.1429 16.2932 29.1561 16.1831 29.1379 16.0761C29.1196 15.969 29.0706 15.8696 28.9968 15.7899L24.1915 10.6261ZM0.559254 6.91832H23.3766C23.5296 6.91819 23.6809 6.88652 23.8211 6.8253C23.9614 6.76408 24.0874 6.67461 24.1915 6.56248L29.0049 1.4014C29.0613 1.34176 29.1039 1.27038 29.1295 1.19238C29.1551 1.11437 29.1632 1.03167 29.1532 0.950183C29.1431 0.868694 29.1152 0.79043 29.0714 0.720985C29.0276 0.651541 28.969 0.592632 28.8998 0.548469C28.8071 0.489512 28.6991 0.459269 28.5893 0.461545H5.77194C5.61895 0.461706 5.46763 0.493386 5.32743 0.554609C5.18722 0.615831 5.06114 0.705284 4.95703 0.817388L0.149085 5.97846C0.0751248 6.05829 0.0260487 6.15796 0.0078659 6.26526C-0.0103169 6.37256 0.00318287 6.48283 0.0467121 6.58257C0.0902414 6.68231 0.161911 6.7672 0.252945 6.82683C0.343979 6.88646 0.450427 6.91826 0.559254 6.91832Z" fill="url(#paint0_linear_950_11)"/>
<defs>
<linearGradient id="paint0_linear_950_11" x1="2.4607" y1="27.1606" x2="26.3863" y2="0.187197" gradientUnits="userSpaceOnUse">
<stop stop-color="#D6314D"/>
<stop offset="0.489583" stop-color="#F18948"/>
<stop offset="0.97" stop-color="#F1F400"/>
</linearGradient>
</defs>
</svg>
